<?xml version="1.0" encoding="UTF-8"?>
<svg width="232px" height="68px" viewBox="0 0 232 68" version="1.1" xmlns="http://www.w3.org/2000/svg" xmlns:xlink="http://www.w3.org/1999/xlink">
    <!-- Generator: Sketch 48.2 (47327) - http://www.bohemiancoding.com/sketch -->
    <title>ghint</title>
    <desc>Created with Sketch.</desc>
    <defs></defs>
    <g id="Page-1" stroke="none" stroke-width="1" fill="none" fill-rule="evenodd">
        <g id="ghint">
            <g id="logo" transform="translate(2.000000, 2.000000)">
                <g id="Group">
                    <path d="M62.6108492,14.2023992 C61.0362944,7.89220525 56.1091732,2.96520511 49.7988242,1.390689 C38.0059121,-0.463563001 25.9956602,-0.463563001 14.2027481,1.390689 C7.89239915,2.96520511 2.96527796,7.89220525 1.39072317,14.2023992 C-0.46357439,25.9950216 -0.46357439,38.0049784 1.39072317,49.7976008 C2.96527796,56.1077947 7.89239915,61.0347949 14.2027481,62.609311 C25.9956602,64.463563 38.0059121,64.463563 49.7988242,62.609311 C56.1091732,61.0347949 61.0362944,56.1077947 62.6108492,49.7976008 C64.4630503,38.0048147 64.4630503,25.9951853 62.6108492,14.2023992 Z" id="Shape" fill="#000000" fill-rule="nonzero"></path>
                    <path d="M31.3265845,34.3287172 C28.4998501,38.744786 24.7129051,42.4920516 20.237293,45.3018154 C18.7832531,46.1866386 16.9564339,46.2336005 15.4572262,45.4246963 C13.9580185,44.615792 13.0190389,43.0765309 13.0002861,41.3970559 C12.9815333,39.7175808 13.885917,38.1584785 15.3667023,37.3174988 C17.6862186,35.8857731 19.7442728,34.0816286 21.4549407,31.9803888 C19.7002939,29.9326263 17.6490197,28.148811 15.3667023,26.6859756 C13.1090632,25.3654488 12.3692039,22.4980421 13.7141804,20.2814436 C15.0591569,18.064845 17.9796539,17.3384353 20.237293,18.6589621 C24.7040198,21.4436366 28.4903515,25.1611384 31.3265845,29.5466666 C32.2244718,31.0187969 32.2244718,32.8565869 31.3265845,34.3287172 Z" id="Path" fill="#00FF00"></path>
                    <path d="M47.2,44 L35.8,44 C33.6888889,44 32,42.98 32,41 C32,39.02 33.71,38 35.8,38 L47.2,38 C49.3111111,38 51,39.02 51,41 C51,42.98 49.29,44 47.2,44 Z" id="Path" fill="#00FF00"></path>
                </g>
                <text x="80" y="44" font-weight="bold" font-size="50" height="500" id="ghint" fill="#4A4A4A">g</text>
                <text x="105" y="44" font-weight="bold" font-size="50" height="500" id="ghint" fill="#4A4A4A">hint</text>
            </g>
        </g>
    </g>
</svg>